HIERARCHY
ROOT Hips
{
    OFFSET 0.000000 0.000000 0.000000
    CHANNELS 6 Xposition Yposition Zposition Zrotation Xrotation Yrotation
    JOINT Spine
    {
        OFFSET -0.000000 7.897928 0.000000
        CHANNELS 3 Zrotation Xrotation Yrotation
        JOINT Spine1
        {
            OFFSET -0.000000 22.881742 0.000000
            CHANNELS 3 Zrotation Xrotation Yrotation
            JOINT Neck
            {
                OFFSET -0.000000 22.787771 2.071616
                CHANNELS 3 Zrotation Xrotation Yrotation
                JOINT Head
                {
                    OFFSET -0.000000 13.484266 -1.926324
                    CHANNELS 3 Zrotation Xrotation Yrotation
                    End Site
                    {
                        OFFSET -0.000000 24.079046 0.000000
                    }
                }
            }
            JOINT LeftShoulder
            {
                OFFSET 3.854963 21.096247 -0.110468
                CHANNELS 3 Zrotation Xrotation Yrotation
                JOINT LeftArm
                {
                    OFFSET 10.572188 0.000000 0.000000
                    CHANNELS 3 Zrotation Xrotation Yrotation
                    JOINT LeftForeArm
                    {
                        OFFSET 34.932854 0.000000 0.000000
                        CHANNELS 3 Zrotation Xrotation Yrotation
                        JOINT LeftHand
                        {
                            OFFSET 23.279285 0.000000 0.000000
                            CHANNELS 3 Zrotation Xrotation Yrotation
                            End Site
                            {
                                OFFSET 14.447429 0.000000 0.000000
                            }
                        }
                    }
                }
            }
            JOINT RightShoulder
            {
                OFFSET -3.825334 21.096247 -0.110468
                CHANNELS 3 Zrotation Xrotation Yrotation
                JOINT RightArm
                {
                    OFFSET -10.572188 0.000000 0.000000
                    CHANNELS 3 Zrotation Xrotation Yrotation
                    JOINT RightForeArm
                    {
                        OFFSET -34.932854 0.000000 0.000000
                        CHANNELS 3 Zrotation Xrotation Yrotation
                        JOINT RightHand
                        {
                            OFFSET -23.279285 0.000000 0.000000
                            CHANNELS 3 Zrotation Xrotation Yrotation
                            End Site
                            {
                                OFFSET -14.447429 0.000000 0.000000
                            }
                        }
                    }
                }
            }
        }
    }
    JOINT LeftUpLeg
    {
        OFFSET 9.631618 0.000000 0.000000
        CHANNELS 3 Zrotation Xrotation Yrotation
        JOINT LeftLeg
        {
            OFFSET -0.000000 -35.385456 0.000000
            CHANNELS 3 Zrotation Xrotation Yrotation
            JOINT LeftFoot
            {
                OFFSET -0.000000 -43.284000 0.000000
                CHANNELS 3 Zrotation Xrotation Yrotation
                JOINT LeftToeBase
                {
                    OFFSET -0.000000 -6.260552 14.447429
                    CHANNELS 3 Zrotation Xrotation Yrotation
                    End Site
                    {
                        OFFSET -0.000000 0.000000 3.852648
                    }
                }
            }
        }
    }
    JOINT RightUpLeg
    {
        OFFSET -9.631618 0.000000 0.000000
        CHANNELS 3 Zrotation Xrotation Yrotation
        JOINT RightLeg
        {
            OFFSET -0.000000 -35.385456 0.000000
            CHANNELS 3 Zrotation Xrotation Yrotation
            JOINT RightFoot
            {
                OFFSET -0.000000 -43.284000 0.000000
                CHANNELS 3 Zrotation Xrotation Yrotation
                JOINT RightToeBase
                {
                    OFFSET -0.000000 -6.260552 14.447429
                    CHANNELS 3 Zrotation Xrotation Yrotation
                    End Site
                    {
                        OFFSET -0.000000 0.000000 3.852648
                    }
                }
            }
        }
    }
}
MOTION
Frames:    8
Frame Time:    0.008333
-22.459290    78.043602    38.208546    -5.951982    -2.833525    70.579628    5.131511    -2.581575    15.830659    -5.451450    -1.770669    15.630650    -7.780648    5.382653    -19.439150    18.550873    11.514258    -18.798132    -1.504577    18.940878    10.606434    -82.359200    48.519867    34.529896    -1.168462    -25.568150    -76.052612    13.772128    -26.268587    1.100679    -14.166740    -2.341608    29.166075    20.582769    4.854738    68.719597    -16.651608    -35.739197    50.570518    -14.703639    -29.832685    7.003974    29.382210    -39.322739    30.172241    -40.808178    26.559698    53.543270    18.910330    -2.185477    26.554121    0.000000    0.000000    0.000000    -6.219711    8.775593    -15.744650    13.313337    36.919758    -12.750141    15.704725    -23.711645    -9.802963    0.000000    0.000000    0.000000    
-21.094316    78.347847    38.563728    -5.584306    -3.382952    72.129807    5.138762    -2.011589    16.062759    -6.489527    -3.310197    15.784766    -7.205095    6.039948    -20.271990    19.696495    12.282598    -19.876541    -0.694670    18.960407    10.139396    -82.216972    47.652660    35.688881    -2.627622    -25.783442    -77.639595    11.916360    -27.635071    0.379176    -14.338404    -2.672757    29.465519    20.022215    5.584061    68.251335    -19.756014    -34.992424    48.490509    -13.286283    -28.074146    7.556422    27.869787    -38.552299    29.647068    -39.994007    27.799128    51.720493    18.953037    -3.674710    26.183796    0.000000    0.000000    0.000000    -5.491367    9.784706    -16.074127    12.841490    37.225670    -12.530026    16.782351    -20.550142    -10.891466    0.000000    0.000000    0.000000    
-19.755203    78.668655    38.932426    -5.203941    -3.994915    73.829872    5.048689    -1.740908    16.196718    -7.137188    -4.358167    15.848040    -6.570815    6.660397    -21.103113    20.508595    12.768805    -20.922424    0.008374    18.740482    9.785356    -81.936172    47.131111    36.647472    -3.974121    -25.801550    -79.559151    11.720469    -28.678846    0.700541    -14.582298    -2.597207    29.603777    19.248785    5.921138    67.703888    -23.337864    -33.567146    45.887291    -12.372102    -25.624113    8.274961    26.607792    -37.881721    29.254717    -39.119148    29.466856    49.106659    18.803808    -4.845505    26.076902    0.000000    0.000000    0.000000    -4.842234    10.412470    -16.133722    12.766390    38.200455    -12.931951    17.229342    -16.657047    -11.266634    0.000000    0.000000    0.000000    
-18.389706    79.017509    39.281250    -4.757926    -4.817227    75.803612    5.171185    -1.582444    16.182932    -7.696918    -5.019238    15.773618    -5.958413    7.307478    -21.952114    21.274212    13.022791    -21.944885    0.824715    18.243143    9.290467    -81.646828    46.387238    37.344196    -4.235969    -25.670460    -80.842728    9.974895    -28.830193    0.611425    -14.389185    -2.598478    29.518171    18.086302    6.640608    66.932640    -27.408171    -31.345211    42.785606    -11.709201    -22.402468    9.155486    25.560143    -37.250698    28.555277    -38.129204    31.046881    46.123295    18.570635    -5.561473    26.337475    0.000000    0.000000    0.000000    -4.171178    10.514544    -16.476748    12.422794    39.891659    -13.070242    16.977715    -11.054789    -11.570019    0.000000    0.000000    0.000000    
-17.066488    79.363991    39.548866    -4.221725    -5.503076    77.960876    5.708461    -1.620919    15.831319    -8.835894    -4.914566    15.370561    -5.440724    7.351916    -22.599583    21.764059    13.617286    -22.786148    1.660792    17.565996    9.493002    -80.656731    46.219433    37.157471    -4.287808    -25.090157    -81.870522    8.479442    -28.396793    0.214915    -14.216640    -2.616211    29.801849    17.535225    6.637823    66.105721    -30.588137    -28.055588    39.583096    -12.068963    -18.715803    10.594646    24.413477    -36.675945    27.193632    -37.658596    32.320518    43.548042    18.068048    -6.219954    26.865566    0.000000    0.000000    0.000000    -3.933204    10.277980    -16.308043    13.022796    41.928669    -14.092863    16.325447    -4.449386    -11.719508    0.000000    0.000000    0.000000    
-15.831727    79.773125    39.828747    -3.890158    -6.257999    80.382172    5.613712    -1.528362    15.176867    -8.618878    -5.851342    14.660610    -5.654666    8.193620    -23.003992    22.147945    14.156565    -23.345814    1.552129    17.073843    9.721428    -79.275787    45.831089    36.935158    -4.208155    -24.164734    -82.292198    7.490294    -27.479601    -0.090148    -14.013685    -1.652720    30.539175    17.167074    6.451097    65.146858    -32.521851    -23.789148    36.364262    -14.365564    -14.845470    12.044621    23.375858    -36.437164    25.398127    -37.202309    33.117329    41.560116    17.850500    -6.373858    27.231352    0.000000    0.000000    0.000000    -3.567912    9.281902    -16.171555    13.494060    44.656292    -15.054864    17.510006    2.187764    -11.631142    0.000000    0.000000    0.000000    
-14.643675    80.095291    39.979820    -3.322076    -6.794713    82.801392    5.449820    -1.580205    14.781123    -8.658485    -6.017773    14.249922    -4.818280    9.057109    -23.622007    21.867855    13.711179    -24.017574    2.087536    16.365776    9.350659    -77.368500    45.278259    35.405613    -4.611740    -22.316973    -82.717499    8.242007    -26.021105    0.004098    -13.102100    -0.612676    30.401964    16.287683    6.393602    63.962688    -32.310501    -20.101673    33.873001    -18.934185    -12.273939    11.817153    22.066977    -35.963108    23.433668    -36.905655    33.612556    39.327099    17.916931    -6.331152    28.167921    0.000000    0.000000    0.000000    -3.766695    8.096615    -15.461453    14.664104    48.267662    -15.963719    19.837837    6.428613    -11.400860    0.000000    0.000000    0.000000    
-13.432522    80.409935    40.153584    -2.606564    -7.434537    85.437866    5.239635    -1.868033    14.245385    -8.184931    -5.639710    13.756059    -4.220671    9.710155    -24.194698    21.402296    13.342048    -24.625061    2.379343    15.630039    9.082936    -75.124741    44.983387    33.153194    -5.017395    -20.539225    -82.808029    8.563803    -24.625637    -0.005349    -12.426531    0.168882    30.152058    16.053928    6.446951    62.556030    -30.122478    -18.058413    31.739067    -23.233665    -11.734751    10.847957    20.803930    -35.453579    21.508980    -36.510509    34.228123    37.781826    18.099394    -6.394726    28.534128    0.000000    0.000000    0.000000    -3.824187    6.858606    -14.448118    16.758863    51.934856    -18.010679    18.192480    9.992345    -9.475359    0.000000    0.000000    0.000000    
